<svg version="1.1" xmlns="http://www.w3.org/2000/svg" width="24" height="24" viewBox="0 0 32 32">
<title>user-circle</title>
<path d="M16 0c-8.822 0-16 7.178-16 16s7.178 16 16 16c8.822 0 16-7.178 16-16s-7.178-16-16-16zM16 2c7.72 0 14 6.28 14 14 0 3.216-1.101 6.173-2.931 8.54-7.019-3.322-15.119-3.322-22.138 0-1.83-2.366-2.931-5.324-2.931-8.54 0-7.72 6.28-14 14-14zM6.334 26.103c6.17-2.733 13.162-2.733 19.332 0-2.515 2.408-5.917 3.897-9.666 3.897s-7.15-1.489-9.666-3.897z"></path>
<path d="M16 20c3.309 0 6-2.691 6-6s-2.691-6-6-6c-3.309 0-6 2.691-6 6s2.691 6 6 6zM16 10c2.206 0 4 1.794 4 4s-1.794 4-4 4-4-1.794-4-4c0-2.206 1.794-4 4-4z"></path>
</svg>
